<?xml version="1.0" encoding="UTF-8"?>
<svg version="1.1" xmlns="http://www.w3.org/2000/svg" viewBox="0 0 501 488">
  <path d="M-4.80043268 115.1343255 C-5.48798639 115.43209894 -6.1755401 115.72987238 -6.88392878 116.03666925 C-31.65361389 126.89770016 -54.83156643 142.7964638 -71.80043268 164.1343255 C-72.57773737 165.09725519 -73.35504206 166.06018488 -74.15590143 167.05229425 C-115.21737895 218.65785673 -112.80043268 274.93479845 -112.80043268 341.1343255 C1.70956732 341.1343255 116.21956732 341.1343255 234.19956732 341.1343255 C236.40451072 284.98719141 236.40451072 284.98719141 227.82456732 230.0718255 C227.51640081 229.01165216 227.20823431 227.95147882 226.89072943 226.85917902 C224.77652262 219.72572741 222.4646307 212.83236981 219.19956732 206.1343255 C218.91500677 205.53394464 218.63044622 204.93356379 218.33726263 204.31498957 C210.48907635 187.78093495 201.24243741 171.40351154 187.81675482 158.720263 C186.11672334 157.05308238 184.64687753 155.28714144 183.13706732 153.4468255 C156.40448367 122.66565458 113.55700845 106.21494656 73.88706732 102.4468255 C47.29444512 100.70779844 19.70811323 104.41993726 -4.80043268 115.1343255 Z" fill="#171717" transform="translate(190.8,22.86)"/>
  <path d="M0 0 C5.92438927 4.15231531 10.68307327 9.0492198 13 16 C14.17549601 32.24496949 14.17549601 32.24496949 9 39 C3.97758055 44.66631938 -1.27489693 49.47362842 -9.015625 50.3359375 C-18.33541538 50.44849535 -24.86499622 49.16872971 -31.8125 42.75 C-38.37092497 35.48997608 -39.74507042 29.49309384 -39.44140625 19.62890625 C-38.47067464 11.64828975 -34.3116678 6.41556169 -28.171875 1.44140625 C-19.44740105 -4.34875722 -9.29239056 -4.60565256 0 0 Z " fill="#ffffff" transform="translate(215.37,233)"/>
  <path d="M0 0 C2.64 5.28 5.28 10.56 8 16 C1.59255269 21.08672858 -4.9656771 25.80646234 -11.75 30.375 C-13.68513718 31.6858417 -15.62003375 32.99703867 -17.5546875 34.30859375 C-18.4837793 34.93749512 -19.41287109 35.56639648 -20.37011719 36.21435547 C-25.60725178 39.77027846 -30.80490122 43.383035 -36 47 C-33.19106117 49.99837889 -30.37656454 52.17378929 -26.875 54.3125 C-22.44683665 57.07208006 -18.14964581 59.94708076 -13.89453125 62.96484375 C-11.56946435 64.59960738 -9.23371689 66.21353925 -6.88671875 67.81640625 C-6.16379639 68.31043945 -5.44087402 68.80447266 -4.69604492 69.31347656 C-3.2506744 70.30008857 -1.80424906 71.28515732 -0.35668945 72.26855469 C0.30758057 72.72262695 0.97185059 73.17669922 1.65625 73.64453125 C2.25244141 74.05034424 2.84863281 74.45615723 3.46289062 74.87426758 C5 76 5 76 7 78 C7 84.18457808 3.23809459 88.98937045 0 94 C-4.44813309 92.47252788 -8.06358113 90.06327291 -11.875 87.375 C-12.56207031 86.89699951 -13.24914062 86.41899902 -13.95703125 85.92651367 C-16.30825226 84.28938823 -18.65435335 82.64510117 -21 81 C-24.66458738 78.43451423 -28.33178706 75.87279853 -32 73.3125 C-32.95511475 72.64371826 -33.91022949 71.97493652 -34.89428711 71.28588867 C-40.15057515 67.62078248 -45.44383054 64.02691057 -50.80859375 60.5234375 C-51.36592194 60.1581041 -51.92325012 59.79277069 -52.49746704 59.41636658 C-55.2017151 57.64432364 -57.91210074 55.88355403 -60.63476562 54.13989258 C-61.59962891 53.50978271 -62.56449219 52.87967285 -63.55859375 52.23046875 C-64.84721313 51.40131958 -64.84721313 51.40131958 -66.16186523 50.55541992 C-66.76844971 50.04213135 -67.37503418 49.52884277 -68 49 C-68 48.01 -68 47.02 -68 46 C-66.61743164 44.74829102 -66.61743164 44.74829102 -64.66015625 43.50390625 C-63.57371826 42.79935303 -63.57371826 42.79935303 -62.46533203 42.08056641 C-61.67239746 41.57960449 -60.87946289 41.07864258 -60.0625 40.5625 C-58.39323202 39.47986519 -56.72529249 38.39517971 -55.05859375 37.30859375 C-54.20894043 36.75671387 -53.35928711 36.20483398 -52.48388672 35.63623047 C-48.80594294 33.21342929 -45.21154262 30.68044911 -41.625 28.125 C-40.229232 27.13272059 -38.83339735 26.14053493 -37.4375 25.1484375 C-36.72464844 24.64151367 -36.01179688 24.13458984 -35.27734375 23.61230469 C-30.22392946 20.03460872 -25.13822927 16.50265931 -20.05957031 12.9609375 C-14.60371359 9.14763505 -9.21385561 5.26533594 -3.8984375 1.2578125 C-2 0 -2 0 0 0 Z " fill="#ffffff" transform="translate(341.45,209)"/>
  <path d="M0 0 C0.70066668 0.00223072 1.40133336 0.00446144 2.12323236 0.00675976 C3.23214012 0.00441978 3.23214012 0.00441978 4.36345005 0.00203252 C6.85936574 -0.00198019 9.35522141 0.0012132 11.85113764 0.00434887 C13.63289154 0.00299495 15.41464517 0.00121507 17.19639826 -0.00096118 C22.04956413 -0.00553661 26.90270885 -0.00374551 31.75587511 -0.0005821 C36.82298959 0.00194094 41.89010219 -0.00039588 46.95721674 -0.00196826 C55.46824708 -0.00379013 63.97926876 -0.00138322 72.49029779 0.00337231 C82.34518376 0.00881496 92.20004904 0.00705232 102.0549345 0.00154591 C110.4999128 -0.00298476 118.94488485 -0.003636 127.38986397 -0.00101542 C132.44078616 0.00054761 137.49169861 0.0007404 142.54262018 -0.00255191 C147.29001384 -0.00542995 152.0373807 -0.00345618 156.78477144 0.00234234 C158.53236391 0.00367031 160.27995862 0.00327522 162.02755022 0.00107968 C164.40281834 -0.00163042 166.77799919 0.00174755 169.15326166 0.00675976 C169.85392834 0.00452904 170.55459502 0.00229832 171.27649403 0 C176.02409715 0.01959354 176.02409715 0.01959354 177.13824701 1.13374341 C177.13824701 6.08374341 177.13824701 11.03374341 177.13824701 16.13374341 C116.74824701 16.13374341 56.35824701 16.13374341 -5.86175299 16.13374341 C-5.86175299 0.02419168 -5.86175299 0.02419168 0 0 Z " fill="#ffffff" transform="translate(165.86,344.86)"/>
</svg>
