<svg width="500" height="500" viewBox="0 0 500 500" fill="none" xmlns="http://www.w3.org/2000/svg">
  <rect width="500" height="500" rx="112" fill="#171717"/>
  <path d="M250 120C178.207 120 120 178.207 120 250C120 321.793 178.207 380 250 380C321.793 380 380 321.793 380 250C380 178.207 321.793 120 250 120ZM185 250C185 214.101 214.101 185 250 185C285.899 185 315 214.101 315 250C315 285.899 285.899 315 250 315C214.101 315 185 285.899 185 250Z" fill="#ffffff"/>
  <circle cx="250" cy="250" r="32" fill="#ffffff"/>
</svg>